<svg xmlns="http://www.w3.org/2000/svg" viewBox="0 0 1460 1080" font-family="-apple-system,'Segoe UI',Helvetica,Arial,sans-serif">
  <defs>
    <marker id="aB" viewBox="0 0 10 10" refX="9" refY="5" markerWidth="7" markerHeight="7" orient="auto"><path d="M0,0 L10,5 L0,10 z" fill="#4E8BF5"/></marker>
    <marker id="aA" viewBox="0 0 10 10" refX="9" refY="5" markerWidth="7" markerHeight="7" orient="auto"><path d="M0,0 L10,5 L0,10 z" fill="#E8A33D"/></marker>
    <marker id="aG" viewBox="0 0 10 10" refX="9" refY="5" markerWidth="7" markerHeight="7" orient="auto"><path d="M0,0 L10,5 L0,10 z" fill="#2CBF7C"/></marker>
    <marker id="aR" viewBox="0 0 10 10" refX="9" refY="5" markerWidth="7" markerHeight="7" orient="auto"><path d="M0,0 L10,5 L0,10 z" fill="#E5654F"/></marker>
    <marker id="aM" viewBox="0 0 10 10" refX="9" refY="5" markerWidth="7" markerHeight="7" orient="auto"><path d="M0,0 L10,5 L0,10 z" fill="#8CA0C4"/></marker>
    <style>
      .panel { fill:#1B2436; stroke:#2B3A57; rx:10; }
      .box   { fill:#222E45; stroke:#3A4A6B; }
      .boxhi { fill:#1D3054; stroke:#175DDC; }
      .t0 { fill:#E6ECF7; font-size:20px; font-weight:700; }
      .t1 { fill:#9FB4D8; font-size:13px; font-weight:700; letter-spacing:.4px; }
      .t2 { fill:#E6ECF7; font-size:12.5px; font-weight:600; }
      .lb { fill:#C7D3E8; font-size:11.5px; }
      .mu { fill:#8CA0C4; font-size:10.5px; }
      .mo { fill:#9DBBF2; font-size:10.5px; font-family:ui-monospace,'SF Mono',Menlo,Consolas,monospace; }
      .moD { fill:#7C8DB0; font-size:10px; font-family:ui-monospace,'SF Mono',Menlo,Consolas,monospace; }
      .grn { fill:#2CBF7C; } .amb { fill:#E8A33D; } .red { fill:#E5654F; } .blu { fill:#4E8BF5; }
      .chip { fill:#141C2C; stroke:#33415C; rx:9; }
      .num { fill:#175DDC; }
      .numt { fill:#FFFFFF; font-size:11px; font-weight:700; }
      .flow { stroke:#4E8BF5; stroke-width:1.6; fill:none; }
      .flowA { stroke:#E8A33D; stroke-width:1.6; fill:none; }
      .flowG { stroke:#2CBF7C; stroke-width:1.6; fill:none; }
      .flowR { stroke:#E5654F; stroke-width:1.4; fill:none; stroke-dasharray:4 3; }
      .flowM { stroke:#8CA0C4; stroke-width:1.3; fill:none; stroke-dasharray:2 3; }
    </style>
  </defs>

  <rect width="1460" height="1080" fill="#131A29"/>
  <text x="24" y="36" class="t0">Gradual Data Migrations</text>
  <text x="292" y="36" class="mu" font-size="13">claim → window → shape → CAS → fenced checkpoint</text>
  <rect x="24" y="20" width="6" height="22" fill="#175DDC" rx="2"/>

  <!-- ══════════ A · SCHEDULING ══════════ -->
  <rect x="24" y="58" width="1412" height="122" class="panel" rx="10"/>
  <text x="44" y="80" class="t1">SCHEDULING · one trigger, N migrations</text>

  <rect x="44" y="94" width="196" height="66" class="box" rx="8"/>
  <text x="60" y="118" class="t2">Quartz · Admin</text>
  <text x="60" y="136" class="mo">cron 0 */15 * ? * *</text>
  <text x="60" y="151" class="mu">lease recovery ≤ 1 firing</text>

  <line x1="240" y1="127" x2="286" y2="127" class="flow" marker-end="url(#aB)"/>

  <rect x="290" y="94" width="256" height="66" class="boxhi" rx="8"/>
  <text x="306" y="116" class="t2">DataMigrationsJob</text>
  <text x="306" y="132" class="mo">firings overlap freely · engine caps drains</text>
  <text x="306" y="149" class="mu">gate: per-migration flag · cloud = self-host</text>

  <line x1="546" y1="127" x2="620" y2="127" class="flow" marker-end="url(#aB)"/>
  <text x="552" y="118" class="mu">shuffle · ∀</text>

  <rect x="636" y="106" width="316" height="60" class="box" rx="8" opacity=".35"/>
  <rect x="628" y="100" width="316" height="60" class="box" rx="8" opacity=".6"/>
  <rect x="620" y="94" width="316" height="60" class="boxhi" rx="8"/>
  <text x="636" y="115" class="t2">OrganizationApiKeyProtectionMigration</text>
  <text x="636" y="131" class="mo">flag pm-40439-org-api-key-protection-migration</text>
  <text x="636" y="147" class="mu">IDataMigration · self-gating · drains until done</text>

  <rect x="988" y="94" width="428" height="30" class="chip"/>
  <text x="1002" y="113" class="mo">+ migration N+1 = AddTransient≪IDataMigration, X≫()  · no trigger</text>
  <path d="M988,148 h60" class="flowR" marker-end="url(#aR)"/>
  <text x="1056" y="152" class="mu"><tspan class="red">throw</tspan> → log · concurrent siblings unaffected</text>

  <!-- ══════════ B · ENGINE PIPELINE ══════════ -->
  <rect x="40" y="212" width="552" height="600" class="box" rx="10" opacity=".28"/>
  <rect x="32" y="204" width="552" height="600" class="box" rx="10" opacity=".5"/>
  <rect x="24" y="196" width="552" height="600" class="panel" rx="10"/>
  <text x="44" y="219" class="t1">BaseDataMigration.RunAsync · per claimed partition</text>
  <text x="360" y="219" class="mu">×MaxParallelBatches · disjoint ⇒ no deadlock</text>

  <!-- step 1 init -->
  <circle cx="62" cy="262" r="11" class="num"/><text x="58" y="266" class="numt">1</text>
  <rect x="84" y="238" width="470" height="50" class="box" rx="7"/>
  <text x="98" y="257" class="t2">initialize once <tspan class="mu">Exists? ✗ → boundaries(N) → insert all partitions</tspan></text>
  <text x="98" y="274" class="mo">atomic INSERT · UNIQUE(Name,Partition) = init mutex · loser rolls back whole</text>
  <line x1="300" y1="288" x2="300" y2="302" class="flow" marker-end="url(#aB)"/>

  <!-- step 2 claim -->
  <circle cx="62" cy="328" r="11" class="num"/><text x="58" y="332" class="numt">2</text>
  <rect x="84" y="304" width="470" height="50" class="box" rx="7"/>
  <text x="98" y="323" class="t2">claim partition <tspan class="mu">any available · never blocks</tspan></text>
  <text x="98" y="340" class="mo">UPDATE TOP(1) … WITH (READPAST) SET Lease… OUTPUT row · 0 rows → exit</text>
  <line x1="300" y1="354" x2="300" y2="368" class="flow" marker-end="url(#aB)"/>

  <!-- step 3 read -->
  <circle cx="62" cy="394" r="11" class="num"/><text x="58" y="398" class="numt">3</text>
  <rect x="84" y="370" width="470" height="50" class="box" rx="7"/>
  <text x="98" y="389" class="t2">windowed read <tspan class="mu">raw values · bounded statement</tspan></text>
  <text x="98" y="406" class="mo">TOP(@ScanWindow) Id &gt; @Cursor ∧ Id ≤ @RangeEnd · candidates only on wire</text>
  <line x1="300" y1="420" x2="300" y2="434" class="flow" marker-end="url(#aB)"/>

  <!-- step 4 shape -->
  <circle cx="62" cy="460" r="11" class="num"/><text x="58" y="464" class="numt">4</text>
  <rect x="84" y="436" width="470" height="50" class="box" rx="7"/>
  <text x="98" y="455" class="t2">shape per row <tspan class="mo">'P|' present → null · else Protect(value)</tspan></text>
  <text x="98" y="472" class="mu"><tspan class="red">throw</tspan> → RowsFailed++ · log Id · cursor still advances — one bad row never halts</text>
  <line x1="300" y1="486" x2="300" y2="500" class="flow" marker-end="url(#aB)"/>

  <!-- step 5 write -->
  <circle cx="62" cy="526" r="11" class="num"/><text x="58" y="530" class="numt">5</text>
  <rect x="84" y="502" width="470" height="50" class="boxhi" rx="7"/>
  <text x="98" y="521" class="t2">CAS write · one txn <tspan class="mu">≤ BatchSize rows · commits before return</tspan></text>
  <text x="98" y="538" class="mo">SET ApiKey=@New WHERE Id=@Id ∧ ApiKey=@Original · miss ⇒ raced++</text>
  <line x1="300" y1="552" x2="300" y2="566" class="flowG" marker-end="url(#aG)"/>
  <text x="312" y="563" class="grn" font-size="10.5">commit first, then…</text>

  <!-- step 6 checkpoint -->
  <circle cx="62" cy="592" r="11" class="num"/><text x="58" y="596" class="numt">6</text>
  <rect x="84" y="568" width="470" height="50" class="box" rx="7"/>
  <text x="98" y="587" class="t2">fenced checkpoint <tspan class="mu">cursor + counters + CompletedDate?</tspan></text>
  <text x="98" y="604" class="mo">WHERE LeaseOwner=@me · lease += duration · <tspan class="amb">0 rows → yield</tspan></text>
  <line x1="300" y1="618" x2="300" y2="632" class="flow" marker-end="url(#aB)"/>
  <path d="M84,606 H38 V395 h8" class="flowG" marker-end="url(#aG)"/>
  <text x="33" y="500" transform="rotate(-90 33 500)" class="grn" font-size="10" text-anchor="middle">¬EndOfRange → next window · lease renewed</text>

  <!-- step 7 release -->
  <circle cx="62" cy="658" r="11" class="num"/><text x="58" y="662" class="numt">7</text>
  <rect x="84" y="634" width="470" height="50" class="box" rx="7"/>
  <text x="98" y="653" class="t2">release · end of drain <tspan class="mu">fenced · expiry is the backstop</tspan></text>
  <text x="98" y="670" class="mu">EndOfRange → CompletedDate ✓ · all partitions ✓ → migration done · flag off = latch</text>

  <rect x="84" y="706" width="470" height="34" class="chip"/>
  <text x="98" y="727" class="mu"><tspan class="amb">crash anywhere</tspan> ⇒ lease expires ⇒ next firing replays ≤ 1 window · <tspan class="grn">idempotent</tspan></text>

  <rect x="84" y="752" width="470" height="30" class="chip"/>
  <text x="98" y="771" class="mo">metrics Bit.Core.DataMigrations · rows{scanned·converted·raced·failed}</text>

  <!-- ══════════ C · STATE TABLE ══════════ -->
  <rect x="604" y="196" width="832" height="252" class="panel" rx="10"/>
  <text x="624" y="219" class="t1">DataMigrationState · 1 row per (migration, partition)</text>
  <rect x="1094" y="204" width="132" height="22" class="chip"/><text x="1106" y="219" class="mo">Id = COMB PK</text>
  <rect x="1236" y="204" width="184" height="22" class="chip"/><text x="1248" y="219" class="mo">UNIQUE(Name,Partition)</text>

  <g class="moD">
    <text x="624" y="248">Name</text><text x="806" y="248">P</text><text x="836" y="248">(Start,End]</text><text x="944" y="248">Cursor·progress</text><text x="1088" y="248">Scan</text><text x="1140" y="248">Conv</text><text x="1192" y="248">Raced</text><text x="1244" y="248">Fail</text><text x="1288" y="248">Lease</text><text x="1402" y="248">Done</text>
  </g>
  <line x1="620" y1="256" x2="1420" y2="256" stroke="#2B3A57"/>

  <!-- rows -->
  <g font-size="10.5" font-family="ui-monospace,'SF Mono',Menlo,Consolas,monospace">
    <g fill="#C7D3E8">
      <text x="624" y="276">org-apikey-protect</text><text x="806" y="276">0</text><text x="836" y="276">(∅,∅]</text>
      <rect x="944" y="266" width="110" height="11" fill="#141C2C" rx="3"/><rect x="944" y="266" width="90" height="11" fill="#175DDC" rx="3"/>
      <text x="1088" y="276">41k</text><text x="1140" y="276">39.7k</text><text x="1192" y="276" fill="#4E8BF5">3</text><text x="1244" y="276">0</text>
      <text x="1288" y="276" fill="#E8A33D">mach-a ⏱+10m</text><text x="1402" y="276" fill="#8CA0C4">—</text>
    </g>
    <g fill="#8CA0C4">
      <text x="624" y="302">user-apikey-protect</text><text x="806" y="302">0</text><text x="836" y="302">(∅,g₁]</text>
      <rect x="944" y="292" width="110" height="11" fill="#141C2C" rx="3"/><rect x="944" y="292" width="110" height="11" fill="#2CBF7C" rx="3"/>
      <text x="1088" y="302">15.6M</text><text x="1140" y="302">14.9M</text><text x="1192" y="302">812</text><text x="1244" y="302">2</text>
      <text x="1288" y="302">∅</text><text x="1402" y="302" fill="#2CBF7C">✓</text>
    </g>
    <g fill="#C7D3E8">
      <text x="624" y="328">user-apikey-protect</text><text x="806" y="328">1</text><text x="836" y="328">(g₁,g₂]</text>
      <rect x="944" y="318" width="110" height="11" fill="#141C2C" rx="3"/><rect x="944" y="318" width="69" height="11" fill="#175DDC" rx="3"/>
      <text x="1088" y="328">9.8M</text><text x="1140" y="328">9.3M</text><text x="1192" y="328">504</text><text x="1244" y="328">1</text>
      <text x="1288" y="328" fill="#E8A33D">mach-b ⏱+10m</text><text x="1402" y="328" fill="#8CA0C4">—</text>
    </g>
    <g fill="#C7D3E8">
      <rect x="616" y="336" width="808" height="20" fill="none" stroke="#E5654F" stroke-dasharray="3 3" rx="4"/>
      <text x="624" y="350">user-apikey-protect</text><text x="806" y="350">2</text><text x="836" y="350">(g₂,g₃]</text>
      <rect x="944" y="340" width="110" height="11" fill="#141C2C" rx="3"/><rect x="944" y="340" width="45" height="11" fill="#175DDC" rx="3"/>
      <text x="1088" y="350">6.4M</text><text x="1140" y="350">6.1M</text><text x="1192" y="350">377</text><text x="1244" y="350">0</text>
      <text x="1288" y="350" fill="#E5654F">expired → claimable</text><text x="1402" y="350" fill="#8CA0C4">—</text>
    </g>
    <g fill="#C7D3E8">
      <text x="624" y="376">user-apikey-protect</text><text x="806" y="376">3</text><text x="836" y="376">(g₃,∅]</text>
      <rect x="944" y="366" width="110" height="11" fill="#141C2C" rx="3"/><rect x="944" y="366" width="13" height="11" fill="#175DDC" rx="3"/>
      <text x="1088" y="376">1.9M</text><text x="1140" y="376">1.8M</text><text x="1192" y="376">96</text><text x="1244" y="376">0</text>
      <text x="1288" y="376">∅ free</text><text x="1402" y="376" fill="#8CA0C4">—</text>
    </g>
  </g>
  <text x="624" y="404" class="mu">Cursor · RangeStart · RangeEnd = opaque strings — DB compares typed values; engine never parses</text>
  <text x="624" y="424" class="mu">progress SELECT-able in incidents · no telemetry required</text>

  <!-- cross arrows pipeline ↔ state -->
  <path d="M554,329 h50" class="flowA" marker-end="url(#aA)"/>
  <text x="560" y="322" class="amb" font-size="10">claim</text>
  <path d="M554,593 h28 v-160 h22" class="flowG" marker-end="url(#aG)"/>
  <text x="560" y="586" class="grn" font-size="10">checkpoint</text>
  <path d="M554,659 h40 v-214 h10" class="flowM" marker-end="url(#aM)"/>
  <text x="560" y="676" class="mu" font-size="10">release</text>

  <!-- ══════════ D · KEYSPACE + WINDOW ══════════ -->
  <rect x="604" y="464" width="832" height="342" class="panel" rx="10"/>
  <text x="624" y="487" class="t1">KEYSPACE · partitions fixed at init · windows per drain pass</text>

  <!-- partition bar -->
  <g>
    <rect x="640" y="502" width="192" height="24" fill="#1D3054" stroke="#2CBF7C"/>
    <rect x="640" y="502" width="192" height="24" fill="#2CBF7C" opacity=".35"/>
    <rect x="832" y="502" width="192" height="24" fill="#1D3054" stroke="#3A4A6B"/>
    <rect x="832" y="502" width="121" height="24" fill="#175DDC" opacity=".55"/>
    <rect x="1024" y="502" width="192" height="24" fill="#1D3054" stroke="#3A4A6B"/>
    <rect x="1024" y="502" width="79" height="24" fill="#175DDC" opacity=".55"/>
    <rect x="1216" y="502" width="192" height="24" fill="#1D3054" stroke="#3A4A6B"/>
    <rect x="1216" y="502" width="23" height="24" fill="#175DDC" opacity=".55"/>
    <g fill="#E6ECF7" font-size="10.5" font-weight="600">
      <text x="726" y="518">P0 ✓</text><text x="918" y="518">P1</text><text x="1110" y="518">P2</text><text x="1302" y="518">P3</text>
    </g>
    <g stroke="#E8A33D" stroke-width="2">
      <line x1="832" y1="498" x2="832" y2="530"/><line x1="1024" y1="498" x2="1024" y2="530"/><line x1="1216" y1="498" x2="1216" y2="530"/>
    </g>
    <g class="moD"><text x="826" y="544">g₁</text><text x="1018" y="544">g₂</text><text x="1210" y="544">g₃</text></g>
    <text x="1256" y="544" class="mu">boundaries = percentile sample (OFFSET k·total/N)</text>
    <path d="M953,526 l4,8 h-8 z" fill="#E6ECF7"/>
  </g>

  <!-- zoom wedge -->
  <path d="M953,534 L640,584 M953,534 L1408,584" stroke="#33415C" stroke-dasharray="3 3" fill="none"/>
  <text x="640" y="576" class="mu">zoom · P1 at cursor</text>

  <!-- window strip: 16 cells x 48 -->
  <g>
    <!-- behind cursor -->
    <rect x="640" y="584" width="48" height="34" fill="#1A2233" stroke="#26324B"/><text x="655" y="606" class="moD">P|</text>
    <rect x="688" y="584" width="48" height="34" fill="#1A2233" stroke="#26324B"/><text x="703" y="606" class="moD">P|</text>
    <line x1="736" y1="578" x2="736" y2="624" stroke="#E6ECF7" stroke-width="2"/>
    <text x="700" y="636" class="lb">Cursor</text>
    <!-- window cells 3..14 -->
    <rect x="736" y="584" width="48" height="34" fill="#26324B" stroke="#33415C"/><text x="751" y="606" class="moD">P|</text>
    <rect x="784" y="584" width="48" height="34" fill="#26324B" stroke="#33415C"/><text x="799" y="606" class="moD">P|</text>
    <rect x="832" y="584" width="48" height="34" fill="#175DDC" stroke="#4E8BF5"/><text x="846" y="606" fill="#fff" font-size="10">abc</text>
    <rect x="880" y="584" width="48" height="34" fill="#26324B" stroke="#33415C"/><text x="895" y="606" class="moD">P|</text>
    <rect x="928" y="584" width="48" height="34" fill="#175DDC" stroke="#4E8BF5"/><text x="942" y="606" fill="#fff" font-size="10">k9f</text>
    <rect x="976" y="584" width="48" height="34" fill="#26324B" stroke="#33415C"/><text x="991" y="606" class="moD">P|</text>
    <rect x="1024" y="584" width="48" height="34" fill="#26324B" stroke="#33415C"/><text x="1039" y="606" class="moD">P|</text>
    <rect x="1072" y="584" width="48" height="34" fill="#175DDC" stroke="#4E8BF5"/><text x="1086" y="606" fill="#fff" font-size="10">q2m</text>
    <rect x="1120" y="584" width="48" height="34" fill="#26324B" stroke="#33415C"/><text x="1135" y="606" class="moD">P|</text>
    <rect x="1168" y="584" width="48" height="34" fill="#175DDC" stroke="#4E8BF5"/><text x="1182" y="606" fill="#fff" font-size="10">z71</text>
    <rect x="1216" y="584" width="48" height="34" fill="#26324B" stroke="#33415C"/><text x="1231" y="606" class="moD">P|</text>
    <rect x="1264" y="584" width="48" height="34" fill="#175DDC" stroke="#4E8BF5"/><text x="1278" y="606" fill="#fff" font-size="10">h44</text>
    <!-- beyond window -->
    <rect x="1312" y="584" width="48" height="34" fill="#1A2233" stroke="#26324B" opacity=".7"/>
    <rect x="1360" y="584" width="48" height="34" fill="#1A2233" stroke="#26324B" opacity=".7"/>
    <line x1="1312" y1="578" x2="1312" y2="624" stroke="#E8A33D" stroke-width="2"/>
    <text x="1318" y="636" class="amb" font-size="11">NextCursor = window end</text>
    <!-- window bracket -->
    <path d="M736,650 v6 h576 v-6" stroke="#4E8BF5" fill="none"/>
    <text x="936" y="668" class="lb">ScanWindow = 5×BatchSize <tspan class="mu">· statement cost constant</tspan></text>
  </g>

  <g class="moD"><text x="742" y="576" fill="#7C8DB0">gray 'P|' = already protected · filtered in SQL · never cross wire</text></g>
  <text x="640" y="700" class="mo">returns: candidates + (MAX(Id), COUNT(*), candidateCount) — one round trip · blue → Shape → CAS batch</text>

  <rect x="640" y="716" width="240" height="26" class="chip"/><text x="652" y="733" class="mu">0 candidates → cursor still leaps window</text>
  <rect x="892" y="716" width="264" height="26" class="chip"/><text x="904" y="733" class="mu">candidates &gt; BatchSize → cursor = last taken</text>
  <rect x="1168" y="716" width="240" height="26" class="chip"/><text x="1180" y="733" class="mu">scanned &lt; window → EndOfRange → done ✓</text>

  <text x="640" y="770" class="mu">throughput = partitions × BatchSize ÷ batch latency · firings only start &amp; resume work</text>
  <text x="640" y="789" class="mu">BatchSize × (1 + touched indexes) stays far below the ~5k lock-escalation cliff — per statement, per worker</text>

  <!-- ══════════ E · RACES ══════════ -->
  <rect x="24" y="822" width="1412" height="158" class="panel" rx="10"/>
  <text x="44" y="845" class="t1">RACES · both resolve as no-ops</text>

  <rect x="44" y="858" width="676" height="104" class="box" rx="8"/>
  <text x="60" y="878" class="t2">rotation vs migration <tspan class="mu">— the CAS</tspan></text>
  <text x="60" y="898" class="mo"><tspan class="grn">t₀ writer:</tspan> SET ApiKey='P|xyz₂' WHERE Id=42 <tspan class="grn">· writers already protect</tspan></text>
  <text x="60" y="916" class="mo"><tspan class="blu">t₁ migration:</tspan> SET ApiKey='P|abc₁' WHERE Id=42 ∧ ApiKey='abc' → <tspan class="red">0 rows</tspan></text>
  <text x="60" y="940" class="lb">rotation always wins → raced++ · miss ⇒ already protected ⇒ <tspan class="grn">skip forever, no retry</tspan></text>

  <rect x="740" y="858" width="676" height="104" class="box" rx="8"/>
  <text x="756" y="878" class="t2">zombie vs fence <tspan class="mu">— two layers</tspan></text>
  <text x="756" y="898" class="mo"><tspan class="amb">state:</tspan> Checkpoint … WHERE LeaseOwner=@zombie → <tspan class="red">0 rows</tspan> <tspan class="amb">· new owner's cursor safe</tspan></text>
  <text x="756" y="916" class="mo"><tspan class="blu">data:</tspan> stray CAS batch → originals already replaced → <tspan class="red">0 rows</tspan></text>
  <text x="756" y="940" class="lb">lease fences the state row · CAS fences the data rows · <tspan class="grn">no coordination needed</tspan></text>

  <!-- ══════════ F · INVARIANTS ══════════ -->
  <g>
    <rect x="24" y="998" width="212" height="30" class="chip"/><text x="40" y="1017" class="mu"><tspan class="grn">■</tspan> idempotent · replay ≤ 1 window</text>
    <rect x="246" y="998" width="176" height="30" class="chip"/><text x="262" y="1017" class="mu"><tspan class="grn">■</tspan> commit → then checkpoint</text>
    <rect x="432" y="998" width="240" height="30" class="chip"/><text x="448" y="1017" class="mu"><tspan class="amb">■</tspan> writers protect-on-write before flag</text>
    <rect x="682" y="998" width="216" height="30" class="chip"/><text x="698" y="1017" class="mu"><tspan class="blu">■</tspan> disjoint partitions · no deadlock</text>
    <rect x="908" y="998" width="188" height="30" class="chip"/><text x="924" y="1017" class="mu"><tspan class="blu">■</tspan> cursor = scan, not convert</text>
    <rect x="1106" y="998" width="176" height="30" class="chip"/><text x="1122" y="1017" class="mu"><tspan class="red">■</tspan> RevisionDate untouched</text>
    <rect x="1292" y="998" width="144" height="30" class="chip"/><text x="1308" y="1017" class="mu"><tspan class="grn">■</tspan> flag = kill + latch</text>
  </g>
</svg>
